<?xml version="1.0" encoding="UTF-8" standalone="no"?>
<!-- Created with Inkscape (http://www.inkscape.org/) -->

<svg
   width="33.382103mm"
   height="36.61264mm"
   viewBox="0 0 33.382103 36.61264"
   version="1.1"
   id="svg1"
   sodipodi:docname="logo-bdc.svg"
   xmlns:inkscape="http://www.inkscape.org/namespaces/inkscape"
   xmlns:sodipodi="http://sodipodi.sourceforge.net/DTD/sodipodi-0.dtd"
   xmlns="http://www.w3.org/2000/svg"
   xmlns:svg="http://www.w3.org/2000/svg">
  <sodipodi:namedview
     id="namedview1"
     pagecolor="#ffffff"
     bordercolor="#000000"
     borderopacity="0.25"
     inkscape:showpageshadow="2"
     inkscape:pageopacity="0.0"
     inkscape:pagecheckerboard="0"
     inkscape:deskcolor="#d1d1d1"
     inkscape:document-units="mm"
     inkscape:zoom="0.69043651"
     inkscape:cx="396.12621"
     inkscape:cy="561.23915"
     inkscape:window-width="1854"
     inkscape:window-height="1011"
     inkscape:window-x="66"
     inkscape:window-y="32"
     inkscape:window-maximized="1"
     inkscape:current-layer="layer1" />
  <defs
     id="defs1" />
  <g
     inkscape:label="Layer 1"
     inkscape:groupmode="layer"
     id="layer1"
     transform="translate(-67.997917,-104.24583)">
    <path
       d="m 84.547289,121.58867 -16.549372,9.57828 16.549372,9.69152 16.832731,-9.91828 z"
       fill="#f1f2f6"
       id="path1-0-5"
       style="stroke-width:0.56676"
       inkscape:export-filename="logo-bdc2.svg"
       inkscape:export-xdpi="96"
       inkscape:export-ydpi="96" />
    <path
       d="m 67.997917,111.27367 v 19.89322 l 16.662725,-8.72814 v -18.19292 z"
       fill="#dfe4ea"
       id="path2-2-3"
       style="stroke-width:0.56676" />
    <path
       d="m 84.547289,104.24583 v 17.51287 l 16.776061,9.23817 V 111.6704 Z"
       fill="#ced6e0"
       id="path3-5-5"
       style="stroke-width:0.56676" />
    <path
       d="m 84.037203,131.6203 v 2.66377 l 1.983669,0.96349 v -2.72044 z"
       fill="#f6d340"
       id="path4-4-6"
       style="stroke-width:0.56676" />
    <path
       d="m 86.020872,130.71343 -1.983669,0.96349 1.983669,1.02016 2.040322,-1.02016 z"
       fill="#e9b140"
       id="path5-2-2"
       style="stroke-width:0.56676" />
    <path
       d="m 86.020872,132.58379 v 2.72044 l 1.983646,-0.96349 v -2.72044 z"
       fill="#df8e2e"
       id="path6-0-9"
       style="stroke-width:0.56676" />
    <path
       d="m 83.187081,124.08241 v 3.74055 l 2.890467,1.36028 v -3.74061 z"
       fill="#f6d340"
       id="path7-1-1"
       style="stroke-width:0.56676" />
    <path
       d="m 86.020872,122.77881 -2.777114,1.36022 2.83379,1.30355 2.720437,-1.30355 z"
       fill="#1d87c5"
       id="path8-2-2"
       style="stroke-width:0.56676" />
    <path
       d="m 86.077548,125.44263 v 3.74061 l 2.720437,-1.36028 v -3.74055 z"
       fill="#df8e2e"
       id="path9-7-7"
       style="stroke-width:0.56676" />
    <path
       d="m 81.09006,128.27648 v 1.98366 l 1.473583,0.68011 v -1.98366 z"
       fill="#80d772"
       id="path10-6-0"
       style="stroke-width:0.56676" />
    <path
       d="m 82.563643,127.53964 -1.473583,0.73684 1.53027,0.73679 1.473549,-0.73679 z"
       fill="#1ba05f"
       id="path11-5-9"
       style="stroke-width:0.56676" />
    <path
       d="m 82.563643,128.95654 v 1.98365 l 1.47356,-0.68011 v -2.04033 z"
       fill="#2bb873"
       id="path12-8-3"
       style="stroke-width:0.56676" />
    <path
       d="m 86.47427,130.14679 v 1.70027 l 1.246878,0.56676 v -1.70028 z"
       fill="#80d772"
       id="path13-0-6"
       style="stroke-width:0.56676" />
    <path
       d="m 87.664472,129.52329 -1.246878,0.6235 1.303554,0.56675 1.246855,-0.56675 z"
       fill="#1ba05f"
       id="path14-8-0"
       style="stroke-width:0.56676" />
    <path
       d="m 87.721148,130.71354 v 1.70028 l 1.246855,-0.62349 v -1.70028 z"
       fill="#2bb873"
       id="path15-1-6"
       style="stroke-width:0.56676" />
    <path
       d="m 83.753844,135.02085 v 1.98366 l 1.47356,0.73678 v -1.98365 z"
       fill="#80d772"
       id="path16-5-2"
       style="stroke-width:0.56676" />
    <path
       d="m 85.227404,134.28407 -1.47356,0.73678 1.47356,0.73673 1.530237,-0.73673 z"
       fill="#1ba05f"
       id="path17-9-6"
       style="stroke-width:0.56676" />
    <path
       d="m 85.227404,135.75758 v 1.98366 l 1.530237,-0.73679 v -2.04033 z"
       fill="#2bb873"
       id="path18-7-1"
       style="stroke-width:0.56676" />
    <path
       d="m 82.166898,134.34074 v 2.04039 l 1.473582,0.68011 v -1.98365 z"
       fill="#37a7d2"
       id="path19-3-8"
       style="stroke-width:0.56676" />
    <path
       d="m 83.64048,133.60396 -1.473582,0.73678 1.473582,0.73679 1.530248,-0.73679 z"
       fill="#1d87c5"
       id="path20-3-7"
       style="stroke-width:0.56676" />
    <path
       d="m 83.64048,135.07759 v 1.98365 l 1.530248,-0.73684 v -1.98366 z"
       fill="#186998"
       id="path21-6-9"
       style="stroke-width:0.56676" />
    <path
       d="m 82.677006,130.8269 v 2.55041 l 1.870283,0.90681 v -2.55041 z"
       fill="#80d772"
       id="path22-8-2"
       style="stroke-width:0.56676" />
    <path
       d="m 84.547289,129.92002 -1.870283,0.90682 1.870283,0.90681 1.926981,-0.90681 z"
       fill="#1ba05f"
       id="path23-9-0"
       style="stroke-width:0.56676" />
    <path
       d="m 84.547245,131.73371 v 2.55041 l 1.92696,-0.90681 v -2.55041 z"
       fill="#2bb873"
       id="path24-3-2"
       style="stroke-width:0.56676" />
    <path
       d="m 83.527128,128.4464 v 2.66376 l 1.983668,0.90682 v -2.6071 z"
       fill="#37a7d2"
       id="path25-9-3"
       style="stroke-width:0.56676" />
    <path
       d="m 85.45412,127.48296 -1.926992,0.96349 1.983668,0.96349 1.92696,-0.96349 z"
       fill="#1d87c5"
       id="path26-3-7"
       style="stroke-width:0.56676" />
    <path
       d="m 85.510796,129.40988 v 2.6071 l 1.92696,-0.96349 v -2.60709 z"
       fill="#186998"
       id="path27-0-5"
       style="stroke-width:0.56676" />
    <path
       d="m 82.960365,124.25244 -2.777114,-1.30355 v 3.74056 l 2.777114,1.3036 z"
       fill="#37a7d2"
       id="path28-5-9"
       style="stroke-width:0.56676" />
    <path
       d="m 82.903689,121.58867 -2.720438,1.36028 2.777114,1.30349 2.777114,-1.30349 z"
       fill="#1d87c5"
       id="path29-4-2"
       style="stroke-width:0.56676" />
    <path
       d="m 82.960365,124.2525 v 3.7406 l 2.777114,-1.36022 v -3.74061 z"
       fill="#186998"
       id="path30-5-2"
       style="stroke-width:0.56676" />
    <path
       d="m 91.064947,116.37455 v 2.49374 l 1.870316,0.90681 v -2.49373 z"
       fill="#f6d340"
       id="path31-2-8"
       style="stroke-width:0.56676" />
    <path
       d="m 92.935263,115.46768 -1.870316,0.90681 1.870316,0.90682 1.926971,-0.90682 z"
       fill="#df8e2e"
       id="path32-5-9"
       style="stroke-width:0.56676" />
    <path
       d="m 92.935263,117.28131 v 2.49374 l 1.926971,-0.90682 v -2.55041 z"
       fill="#e9b140"
       id="path33-5-7"
       style="stroke-width:0.56676" />
    <path
       d="m 89.024679,118.30147 v 2.55042 l 1.870306,0.85014 v -2.49374 z"
       fill="#37a7d2"
       id="path34-0-3"
       style="stroke-width:0.56676" />
    <path
       d="m 90.894985,117.3946 -1.870306,0.90682 1.870306,0.90681 1.926992,-0.90681 z"
       fill="#1d87c5"
       id="path35-8-6"
       style="stroke-width:0.56676" />
    <path
       d="m 90.894985,119.20829 v 2.49374 l 1.926992,-0.90682 v -2.49374 z"
       fill="#186998"
       id="path36-3-1"
       style="stroke-width:0.56676" />
    <path
       d="m 88.79792,119.8884 v 2.49374 l 1.926992,0.90681 v -2.49374 z"
       fill="#80d772"
       id="path37-7-2"
       style="stroke-width:0.56676" />
    <path
       d="m 90.668236,118.98159 -1.870316,0.90681 1.926992,0.90681 1.870283,-0.90681 z"
       fill="#1d87c5"
       id="path38-4-9"
       style="stroke-width:0.56676" />
    <path
       d="m 90.668236,120.79521 v 2.49368 l 1.870305,-0.90675 v -2.55042 z"
       fill="#2bb873"
       id="path39-5-3"
       style="stroke-width:0.56676" />
    <path
       d="m 89.024679,118.30147 v 2.55042 l 1.870306,0.85014 v -2.49374 z"
       fill="#37a7d2"
       id="path40-4-1"
       style="stroke-width:0.56676" />
    <path
       d="m 90.894985,117.3946 -1.870306,0.90682 1.870306,0.90681 1.870316,-0.90681 z"
       fill="#1d87c5"
       id="path41-6-9"
       style="stroke-width:0.56676" />
    <path
       d="m 90.894985,119.20829 v 2.49374 l 1.926992,-0.90682 v -2.49374 z"
       fill="#186998"
       id="path42-2-4"
       style="stroke-width:0.56676" />
    <path
       d="m 78.312897,120.28513 v 3.11717 l 2.323698,1.13352 v -3.11717 z"
       fill="#80d772"
       id="path43-1-7"
       style="stroke-width:0.56676" />
    <path
       d="m 80.579941,119.09488 -2.267044,1.19019 2.323698,1.13352 2.323715,-1.13352 z"
       fill="#1ba05f"
       id="path44-8-8"
       style="stroke-width:0.56676" />
    <path
       d="m 80.636661,121.41859 v 3.11717 l 2.323704,-1.13351 v -3.17385 z"
       fill="#2bb873"
       id="path45-7-4"
       style="stroke-width:0.56676" />
    <path
       d="m 87.891166,123.06219 v 3.11717 l 2.323704,1.13352 v -3.11717 z"
       fill="#f6d340"
       id="path46-5-5"
       style="stroke-width:0.56676" />
    <path
       d="m 90.158193,121.92867 -2.267027,1.13352 2.323704,1.13352 2.323715,-1.13352 z"
       fill="#e9b140"
       id="path47-0-0"
       style="stroke-width:0.56676" />
    <path
       d="m 90.21487,124.19571 v 3.11717 l 2.323715,-1.07684 v -3.17385 z"
       fill="#df8e2e"
       id="path48-0-3"
       style="stroke-width:0.56676" />
    <path
       d="m 86.700964,114.2207 v 3.17385 l 2.323715,1.07684 v -3.11717 z"
       fill="#37a7d2"
       id="path49-1-6"
       style="stroke-width:0.56676" />
    <path
       d="m 88.911349,113.14391 -2.267039,1.13352 2.323693,1.13352 2.323704,-1.13352 z"
       fill="#1d87c5"
       id="path50-8-1"
       style="stroke-width:0.56676" />
    <path
       d="m 88.968003,115.41095 v 3.11717 l 2.323704,-1.13352 v -3.11717 z"
       fill="#186998"
       id="path51-7-0"
       style="stroke-width:0.56676" />
    <path
       d="m 82.790337,118.6982 v 5.04416 l 3.683933,1.70027 v -4.9308 z"
       fill="#37a7d2"
       id="path52-8-6"
       style="stroke-width:0.56676" />
    <path
       d="m 86.417594,116.82785 -3.683934,1.8703 3.74061,1.81363 3.7406,-1.81363 z"
       fill="#1d87c5"
       id="path53-3-3"
       style="stroke-width:0.56676" />
    <path
       d="m 86.47427,120.51178 v 4.9308 l 3.7406,-1.75696 v -5.04415 z"
       fill="#186998"
       id="path54-5-2"
       style="stroke-width:0.56676" />
    <path
       d="m 81.033384,116.77123 v 4.42071 l 3.230535,1.58693 v -4.42072 z"
       fill="#f6d340"
       id="path55-8-0"
       style="stroke-width:0.56676" />
    <path
       d="m 84.320595,115.1843 -3.287211,1.6436 3.343898,1.58693 3.28719,-1.58693 z"
       fill="#df8e2e"
       id="path56-9-6"
       style="stroke-width:0.56676" />
    <path
       d="m 84.263919,118.35815 v 4.42072 l 3.287189,-1.58693 v -4.47739 z"
       fill="#e9b140"
       id="path57-8-1"
       style="stroke-width:0.56676" />
    <path
       d="m 83.867174,113.88076 v 3.17384 l 2.323715,1.07685 v -3.11718 z"
       fill="#f6d340"
       id="path58-3-5"
       style="stroke-width:0.56676" />
    <path
       d="m 86.190889,112.74724 -2.323715,1.13352 2.323715,1.13351 2.323704,-1.13351 z"
       fill="#df8e2e"
       id="path59-0-5"
       style="stroke-width:0.56676" />
    <path
       d="m 86.190889,115.01422 v 3.11717 l 2.323704,-1.13352 v -3.17385 z"
       fill="#e9b140"
       id="path60-7-4"
       style="stroke-width:0.56676" />
    <path
       d="m 88.231157,127.82291 -1.983635,-0.85014 v 2.66376 l 2.040311,0.96349 z"
       fill="#f6d340"
       id="path61-6-7"
       style="stroke-width:0.56676" />
    <path
       d="m 88.174481,125.89598 -1.926959,1.07684 1.983635,0.85014 1.983669,-0.96349 z"
       fill="#e9b140"
       id="path62-5-6"
       style="stroke-width:0.56676" />
    <path
       d="m 88.231157,127.82296 v 2.77712 l 1.983669,-0.96349 v -2.77712 z"
       fill="#df8e2e"
       id="path63-2-5"
       style="stroke-width:0.56676" />
    <path
       d="m 82.223574,110.31012 v 3.62726 l 2.663784,1.30354 v -3.62725 z"
       fill="#80d772"
       id="path64-7-6"
       style="stroke-width:0.56676" />
    <path
       d="m 84.830681,109.06331 -2.607107,1.30354 2.663784,1.30355 2.66375,-1.30355 z"
       fill="#1ba05f"
       id="path65-5-9"
       style="stroke-width:0.56676" />
    <path
       d="m 84.887358,111.67034 v 3.57058 l 2.66375,-1.30354 v -3.62726 z"
       fill="#2bb873"
       id="path66-1-3"
       style="stroke-width:0.56676" />
    <path
       d="m 74.742359,120.17178 v 3.11717 l 2.323711,1.07684 v -3.11717 z"
       fill="#f6d340"
       id="path67-4-7"
       style="stroke-width:0.56676" />
    <path
       d="m 77.06607,119.03826 -2.323711,1.13352 2.323711,1.13351 2.38039,-1.13351 z"
       fill="#df8e2e"
       id="path68-3-4"
       style="stroke-width:0.56676" />
    <path
       d="m 77.009393,121.24862 v 3.11717 l 2.380391,-1.13352 v -3.11717 z"
       fill="#e9b140"
       id="path69-7-5"
       style="stroke-width:0.56676" />
    <path
       d="m 77.349463,116.71455 v 3.0605 l 2.267026,1.13351 v -3.11717 z"
       fill="#37a7d2"
       id="path70-0-2"
       style="stroke-width:0.56676" />
    <path
       d="m 79.673176,115.58103 -2.323713,1.1902 2.323713,1.07684 2.323704,-1.07684 z"
       fill="#1d87c5"
       id="path71-8-5"
       style="stroke-width:0.56676" />
    <path
       d="m 79.559813,117.79133 v 3.11718 l 2.380391,-1.13352 v -3.11717 z"
       fill="#186998"
       id="path72-8-4"
       style="stroke-width:0.56676" />
    <path
       d="m 79.389784,113.54076 v 3.11717 l 2.210362,1.13352 v -3.11717 z"
       fill="#37a7d2"
       id="path73-5-7"
       style="stroke-width:0.56676" />
    <path
       d="m 81.600146,112.40724 -2.323726,1.13352 2.323726,1.13352 2.323704,-1.13352 z"
       fill="#1d87c5"
       id="path74-1-4"
       style="stroke-width:0.56676" />
    <path
       d="m 81.600146,114.67428 v 3.11717 l 2.323704,-1.13352 v -3.11717 z"
       fill="#186998"
       id="path75-1-4"
       style="stroke-width:0.56676" />
    <path
       d="m 78.199583,110.14021 v 3.11717 l 2.323715,1.07684 v -3.11717 z"
       fill="#80d772"
       id="path76-8-3"
       style="stroke-width:0.56676" />
    <path
       d="m 80.523298,108.94996 -2.323715,1.19019 2.323715,1.07684 2.323715,-1.13352 z"
       fill="#1ba05f"
       id="path77-4-0"
       style="stroke-width:0.56676" />
    <path
       d="m 80.523298,111.21699 v 3.11717 l 2.323715,-1.13351 v -3.11718 z"
       fill="#2bb873"
       id="path78-8-7"
       style="stroke-width:0.56676" />
    <path
       d="m 74.969077,112.69062 v 3.11717 l 2.32371,1.13352 v -3.11717 z"
       fill="#37a7d2"
       id="path79-9-8"
       style="stroke-width:0.56676" />
    <path
       d="m 77.23611,111.5571 -2.267033,1.13352 2.32371,1.13352 2.323702,-1.13352 z"
       fill="#1d87c5"
       id="path80-8-6"
       style="stroke-width:0.56676" />
    <path
       d="m 77.292787,113.82414 v 3.11717 l 2.323702,-1.13352 v -3.11717 z"
       fill="#186998"
       id="path81-3-8"
       style="stroke-width:0.56676" />
    <path
       d="m 73.042085,117.05449 v 3.11717 l 2.267032,1.13352 v -3.11717 z"
       fill="#80d772"
       id="path82-5-8"
       style="stroke-width:0.56676" />
    <path
       d="m 75.365795,115.97771 -2.32371,1.07684 2.267032,1.13351 2.323711,-1.13351 z"
       fill="#1ba05f"
       id="path83-9-4"
       style="stroke-width:0.56676" />
    <path
       d="m 75.309117,118.18801 v 3.11717 l 2.323711,-1.13352 v -3.11717 z"
       fill="#2bb873"
       id="path84-8-3"
       style="stroke-width:0.56676" />
  </g>
</svg>
